<svg xmlns="http://www.w3.org/2000/svg" viewBox="0 0 161.74 168.34"><defs><style>.cls-1{fill:#d7d7d7;}.cls-2{fill:#b4b4b4;}.cls-3{fill:#c9b037;}.cls-4{fill:#af9500;}</style></defs><title>Asset 6</title><g id="Layer_2" data-name="Layer 2"><g id="Layer_1-2" data-name="Layer 1"><path class="cls-1" d="M70.42,63.09C71.07,40,71.66,16.47,78.54,5.37A11.37,11.37,0,0,1,85,.42a10.26,10.26,0,0,1,7.91.89,10.61,10.61,0,0,1,4.06,14.33C85.51,37,91.53,93.29,84,119.72l-1.3,3.9a29.22,29.22,0,0,1-1.61,3.45c-6.56.49-14.8-4.39-17.63-11.41,5.74-10.28,6.39-31.2,7-52.55v0"/><path class="cls-2" d="M73.47,122.83a14.71,14.71,0,0,1-5.27-.64c3.73,3.28,8.63,5.19,12.86,4.88a29.22,29.22,0,0,0,1.61-3.45l1.3-3.9c7.56-26.43,1.54-82.76,13-104.08A10.61,10.61,0,0,0,92.86,1.31,10.28,10.28,0,0,0,88.61,0a10.73,10.73,0,0,1,.73,11.36c-11.41,21.33-5.4,77.65-13,104.08l-1.3,3.9a27.05,27.05,0,0,1-1.61,3.45"/><path class="cls-3" d="M129,23.67c23.19,9.46,31.79,37.15,31.79,57.79,0,36.75-36.09,86.88-59.28,86.88-5.74,0-11.17-3.17-15.1-5.55-3.45-2.08-9.84-1.34-12,0-3.92,2.41-9.51,5.55-15.11,5.55-27.7,0-59-49.56-59.27-86.88C-.1,63.48,9.8,29.38,36.65,22a31.34,31.34,0,0,1,3.59-.75c17.06-2.4,33.85,7.7,34.41,8.06,2.78,1.39,12.51,2.78,15.29,1.39.23-.19,15.06-13.94,34.2-8.7A45.54,45.54,0,0,1,129,23.67"/><path class="cls-4" d="M33.34,152.74c9.15,9.5,18.8,15.6,26.88,15.6,5.75,0,8.8-1.48,14.36-2.87a23.37,23.37,0,0,1,13.89,1.39c3,1.49,8.4,1.48,14,1.48,27.71,0,59.05-49.56,59.28-86.88.1-18-9.8-52.08-36.65-59.44a31.34,31.34,0,0,0-3.59-.75,26.33,26.33,0,0,0-4.35-.24l.5.36a31.24,31.24,0,0,1,3,2.53c21.46,20.62-3.11,65.48-14.11,87.37s-45.17,46.46-73.19,41.45"/></g></g></svg>