<svg data-name="Layer 1" xmlns="http://www.w3.org/2000/svg" width="905.336" height="646.071"><circle cx="70.668" cy="51.349" r="38" fill="#ff6584"/><path d="M305.608 620.255a296.198 296.198 0 0094.979 21.982c15.3.953 30.888 1 46.109-1.022 13.337-1.771 26.884-5.406 38.002-13.27a56.371 56.371 0 0022.008-33.102c3.4-14.061 1.969-28.793-2.887-42.337a105.48 105.48 0 00-23.247-37.56c-9.246-9.463-22.196-18.07-36.044-16.45-13.311 1.557-22.992 12.317-26.537 24.767-4.25 14.925.64 30.714 7.271 44.152 11.25 22.793 29.302 41.925 50.682 55.528a146.883 146.883 0 0071.74 22.99c25.555 1.15 53.041-4.776 73.177-21.288a64.09 64.09 0 0021.613-33.626c3.575-13.96 2.64-28.701-.454-42.655-6.717-30.292-24.46-56.331-34.734-85.327a137.23 137.23 0 01-5.863-21.745c-.338-1.897-3.23-1.093-2.893.798 5.313 29.828 22.127 55.51 33.163 83.289 10.053 25.303 16.037 56.368 1.145 81.074-13.397 22.224-40.003 33.057-64.816 35.822-24.262 2.704-49.1-1.643-71.342-11.582-22.387-10.005-42.449-25.589-57.003-45.388-7.911-10.761-14.726-22.95-18.22-35.9-3.577-13.255-2.738-28.27 6.723-38.977a26.296 26.296 0 0116.348-8.933c6.604-.826 13.218 1.024 19.023 4.11 12.463 6.623 21.737 18.136 28.893 30.043 7.393 12.3 12.602 26.243 13.119 40.697.48 13.438-3.046 27.215-11.124 38.093-16.678 22.458-48.023 25.184-73.748 25.356a293.206 293.206 0 01-92.858-14.487q-10.866-3.55-21.428-7.945c-1.781-.739-2.558 2.162-.798 2.893z" fill="#e6e6e6"/><path d="M227.623 522.925l-8.056-12.367a6.507 6.507 0 011.898-8.994l49.073-38.145a6.507 6.507 0 018.994 1.898l8.056 12.367a6.507 6.507 0 01-1.898 8.994l-49.073 38.146a6.507 6.507 0 01-8.994-1.899z" fill="#2f2e41"/><path d="M221.518 501.62l12.943-7.094a6.507 6.507 0 018.824 2.575l34.365 61.918a6.507 6.507 0 01-2.576 8.824l-12.943 7.095a6.507 6.507 0 01-8.824-2.576l-34.365-61.918a6.507 6.507 0 012.576-8.824z" fill="#2f2e41"/><path d="M131.556 387.679a6.5 6.5 0 01-6.477-6.075l-.964-14.728a6.5 6.5 0 016.061-6.911l115.388-7.557a13.88 13.88 0 111.814 27.7l-115.388 7.557q-.218.014-.434.014z" fill="#2a9d8f"/><path d="M154.308 389.578a6.508 6.508 0 01-6.492-6.258l-.822-21.998a6.5 6.5 0 016.252-6.738l94.887-3.546a6.5 6.5 0 016.738 6.253l.822 21.998a6.5 6.5 0 01-6.253 6.738l-94.886 3.546a5.983 5.983 0 01-.246.005z" fill="#ccc"/><path d="M306.668 622.157v-47.74c0-41.673-18.181-81.638-50.622-107.796-24.248-19.552-59.369-34.172-109.682-30.905l19.167-76.667L.001 472.307l162.045 113.259-16.553-72.311s101.061-19.167 161.175 108.902z" fill="#3f3d56"/><path d="M190.903 546.696l-11.937-8.68a6.507 6.507 0 01-1.435-9.08l72.342-99.494a6.507 6.507 0 019.08-1.435l11.937 8.68a6.507 6.507 0 011.435 9.08l-72.342 99.494a6.507 6.507 0 01-9.08 1.435z" fill="#2f2e41"/><path d="M177.6 528.97l9.561-11.244a6.507 6.507 0 019.162-.742l54.19 45.587a6.507 6.507 0 01.742 9.162l-9.56 11.245a6.507 6.507 0 01-9.163.741l-54.19-45.587a6.507 6.507 0 01-.742-9.162z" fill="#2f2e41"/><circle cx="243.083" cy="276.966" r="51" fill="#2a9d8f"/><path d="M220.648 299.429a12.095 12.095 0 01-5.027-.98 8.133 8.133 0 01-4.38-5.284 5.472 5.472 0 01.897-4.78c1.332-1.709 3.631-2.522 6.337-2.314l-6.697-18.75 1.883-.672 7.874 22.042-1.775-.403c-2.058-.466-4.728-.363-6.045 1.326a3.514 3.514 0 00-.533 3.07 6.146 6.146 0 003.262 3.942c2.783 1.257 6.041.81 9.703.146l.357 1.968a32.963 32.963 0 01-5.856.689zM191.997 273.216L202.538 271l.412 1.958-10.542 2.214zM225.27 266.225l10.541-2.215.412 1.958-10.542 2.214z" fill="#2f2e41"/><path d="M285.668 495.85h-86a8.51 8.51 0 01-8.5-8.5l18.004-138.065a8.49 8.49 0 018.496-8.436h30.52a46.032 46.032 0 0145.98 45.98v100.52a8.51 8.51 0 01-8.5 8.5z" fill="#ccc"/><path d="M151.37 438.204a6.51 6.51 0 01-5.94-3.84l-6.041-13.466a6.5 6.5 0 013.27-8.591l105.505-47.33a13.88 13.88 0 1111.362 25.327l-105.505 47.33a6.464 6.464 0 01-2.65.57z" fill="#2a9d8f"/><path d="M182.144 431.251a6.51 6.51 0 01-5.94-3.84l-10.319-23.001a6.507 6.507 0 013.27-8.59l86.635-38.865a6.5 6.5 0 018.591 3.27l10.319 23.001a6.5 6.5 0 01-3.27 8.591l-86.635 38.865a6.472 6.472 0 01-2.65.57z" fill="#ccc"/><path d="M231.767 244.99c-8.304-3.059-15.13 5-22.653 6.845-7.199 1.765-14.954-2.388-18.799-8.44-4.486-7.06-3.374-16.228.706-23.198 4.47-7.635 12.428-12.32 20.864-14.365 9.668-2.345 19.741-1.192 29.283 1.19a121.851 121.851 0 0126.443 9.52c7.61 3.939 14.823 9.327 19.27 16.79 4.042 6.782 6.042 15.223 4.042 22.994a24.205 24.205 0 01-6.145 10.626c-3.013 3.19-6.464 5.953-9.273 9.336-4.247 5.114-7.101 13.495-2.914 19.545a9.793 9.793 0 003.551 3.146c1.71.891 3.23-1.697 1.514-2.59-3.011-1.569-4.105-4.752-4.024-7.998a16.272 16.272 0 013.994-9.982c2.943-3.536 6.58-6.398 9.686-9.778a27.022 27.022 0 006.412-11.162c2.208-8.09.481-16.902-3.426-24.19-4.229-7.888-11.316-13.844-19.03-18.172-8.394-4.71-17.724-7.868-26.986-10.375-9.94-2.69-20.376-4.205-30.604-2.343-8.865 1.614-17.53 5.894-23.106 13.136-5.204 6.76-7.69 15.973-5.174 24.291a22.235 22.235 0 0016.697 15.052 19.101 19.101 0 0011.614-1.515c3.896-1.746 7.436-4.46 11.58-5.622a8.94 8.94 0 015.68.152c1.815.668 2.597-2.23.798-2.893z" fill="#2f2e41"/><path d="M598.668 448.189v-47.74c0-41.673 18.182-81.638 50.623-107.796 24.247-19.551 59.368-34.171 109.68-30.904l-19.166-76.667L905.336 298.34 743.29 411.598l16.553-72.311S658.782 320.12 598.668 448.189z" fill="#3f3d56"/><path d="M688.645 209.336a13.88 13.88 0 017.244-24.602l114.98-12.278a6.507 6.507 0 017.153 5.773l-.497.054.497-.054 1.568 14.677a6.5 6.5 0 01-5.774 7.153l-114.98 12.277a14.096 14.096 0 01-1.5.08 13.775 13.775 0 01-8.69-3.08zM722.515 310.724v-14.76a6.507 6.507 0 016.5-6.5H852.03a6.507 6.507 0 016.5 6.5v14.76a6.507 6.507 0 01-6.5 6.5H729.015a6.507 6.507 0 01-6.5-6.5z" fill="#2a9d8f"/><path d="M663.7 311.442a6.459 6.459 0 01-3.25-3.767l-4.627-14.016a6.507 6.507 0 014.134-8.21L776.77 246.88a6.5 6.5 0 018.21 4.134l-.475.157.475-.157 4.628 14.016a6.507 6.507 0 01-4.135 8.21l-116.811 38.568a6.461 6.461 0 01-4.962-.366z" fill="#2a9d8f"/><path d="M816.841 315.773l-52.425-47.27a6.508 6.508 0 01-.474-9.18l9.883-10.961a6.501 6.501 0 019.18-.475l52.425 47.27a6.508 6.508 0 01.475 9.18l-9.884 10.96a6.456 6.456 0 01-4.491 2.14q-.173.009-.344.009a6.453 6.453 0 01-4.345-1.673z" fill="#2a9d8f"/><circle cx="683.56" cy="94.959" r="51" fill="#2a9d8f"/><path d="M623.87 297.361a39.785 39.785 0 010-40.194l54.06-93.635a6.5 6.5 0 0111.259 0l83.24 144.176a6.5 6.5 0 01-5.629 9.75H658.68a39.784 39.784 0 01-34.81-20.097z" fill="#ccc"/><path d="M725.597 114.367c3.306-.091 7.42-.206 10.59-2.522a8.134 8.134 0 003.2-6.072 5.471 5.471 0 00-1.86-4.493c-1.655-1.4-4.073-1.727-6.678-.962l2.699-19.725-1.982-.272-3.173 23.19 1.655-.76c1.918-.88 4.551-1.326 6.188.056a3.515 3.515 0 011.152 2.895 6.148 6.148 0 01-2.38 4.528c-2.467 1.802-5.747 2.034-9.466 2.138zM709.347 82.294h10.772v2h-10.772zM653.321 34.81a42.233 42.233 0 00-21.246-27.277 40.882 40.882 0 00-35.083-1.089 40.417 40.417 0 00-23.244 27.143 42.153 42.153 0 00-.64 18.489 47.958 47.958 0 008.098 18.002c3.951 5.72 8.596 10.913 12.86 16.394a152.006 152.006 0 0111.666 17.3 153.067 153.067 0 0119.574 59.127 91.181 91.181 0 01.46 18.984c-1.149 12.286-5.908 24.32-16.833 31.005-5.808 3.555-12.511 5.39-19.143 6.674a87.125 87.125 0 01-22.657 1.77c-12.843-.912-25.695-6.272-33.154-17.186a30.62 30.62 0 01-3.838-7.885c-.594-1.842 2.301-2.63 2.893-.798 3.95 12.248 15.94 19.797 28.074 22.1a68.674 68.674 0 0022.826-.023c6.862-1.025 13.934-2.443 20.223-5.471a30.284 30.284 0 0013.56-12.536 44.192 44.192 0 004.994-17.088c1.336-13.084-.84-26.63-4.1-39.284a151.204 151.204 0 00-15.899-38.614 148.486 148.486 0 00-11.814-17.286c-4.298-5.417-8.882-10.626-12.758-16.365a49.304 49.304 0 01-7.925-18.023 45.675 45.675 0 01.326-18.785 43.288 43.288 0 0121.89-28.774c10.808-5.701 23.976-7.066 35.537-2.865a45.386 45.386 0 0125.41 23.374 43.27 43.27 0 012.836 8.19c.442 1.878-2.45 2.68-2.893.798z" fill="#2f2e41"/><path d="M643.573 37.25a23.094 23.094 0 00-26.966-14.862c-1.878.44-2.68-2.452-.798-2.892a25.815 25.815 0 0130.657 16.956c.63 1.83-2.267 2.616-2.893.798zM643.116 48.092a5.506 5.506 0 012.881-7.225l13.781-5.923a5.5 5.5 0 014.344 10.106l-13.781 5.923a5.5 5.5 0 01-7.225-2.881z" fill="#2f2e41"/><path d="M677.036 329.17l-14.712-1.195a6.508 6.508 0 01-5.952-7.005l9.358-115.255a13.88 13.88 0 1127.668 2.247l-9.358 115.255a6.5 6.5 0 01-6.468 5.974c-.178 0-.357-.007-.536-.021z" fill="#2a9d8f"/><path d="M12.97 99.685C7.712 87.395 14.919 71.36 27.6 67.13s28.07 4.273 31.242 17.26a34.941 34.941 0 1166.795-7.504c7.644-11.27 24.048-15.527 36.208-9.396s18.491 21.85 13.976 34.698l-167.377-.299M351.97 239.685c-5.258-12.29 1.949-28.326 14.63-32.555s28.07 4.273 31.242 17.26a34.941 34.941 0 1166.795-7.504c7.644-11.27 24.048-15.527 36.208-9.396s18.491 21.85 13.976 34.698l-167.377-.299" fill="#f2f2f2"/></svg>